<svg width="80" height="911" viewBox="0 0 80 911" fill="none" xmlns="http://www.w3.org/2000/svg">
<rect x="28.1943" y="14.1262" width="23.176" height="46.5727" rx="11.588" fill="#96BFAB"/>
<circle cx="39.7823" cy="15.7818" r="11.588" fill="#96BFAB"/>
<rect x="35.6992" width="7.94605" height="7.50461" rx="3.7523" fill="#96BFAB"/>
<mask id="mask0_198_624" style="mask-type:alpha" maskUnits="userSpaceOnUse" x="28" y="0" width="24" height="61">
<rect x="28.1943" y="14.1262" width="23.176" height="46.5727" rx="11.588" fill="#D9D9D9"/>
<circle cx="39.7823" cy="15.7818" r="11.588" fill="#D9D9D9"/>
<rect x="35.6992" width="7.94605" height="7.50461" rx="3.7523" fill="#D9D9D9"/>
</mask>
<g mask="url(#mask0_198_624)">
<rect x="19.145" y="27.3699" width="11.0362" height="14.347" rx="5.51809" fill="#96BFAB"/>
<rect x="49.3838" y="27.3699" width="11.0362" height="14.347" rx="5.51809" fill="#96BFAB"/>
</g>
<rect x="18.8965" y="89.2405" width="41.9939" height="45.8873" fill="#96BFAB"/>
<path d="M29.7423 77.699C36.8618 88.0445 45.9651 82.0096 49.6268 77.699L53.5203 97.3054H30.8547L25.4316 90.0747L26.405 82.2877L29.7423 77.699Z" fill="#96BFAB"/>
<path d="M13.5807 85.8179L29.8185 77.699L31.2946 93.1987L20.0758 101.465L10.3331 136.893L0 132.465L13.5807 85.8179Z" fill="#96BFAB"/>
<path d="M65.8561 85.7976L49.4652 77.699L47.9751 93.16L59.2997 101.406L69.1343 136.745L79.5649 132.328L65.8561 85.7976Z" fill="#96BFAB"/>
<ellipse cx="20.6074" cy="8.91091" rx="20.6074" ry="8.91091" transform="matrix(-0.921403 0.388607 0.553237 0.833024 68.2988 164.735)" fill="#96BFAB"/>
<ellipse cx="12.23" cy="6.43304" rx="12.23" ry="6.43304" transform="matrix(-0.960627 0.27784 0.325098 0.94568 61.3413 181.105)" fill="#96BFAB"/>
<ellipse cx="20.6074" cy="8.91091" rx="20.6074" ry="8.91091" transform="matrix(0.921403 0.388607 -0.553237 0.833024 11.2666 164.735)" fill="#96BFAB"/>
<ellipse cx="12.23" cy="6.43304" rx="12.23" ry="6.43304" transform="matrix(0.960627 0.27784 -0.325098 0.94568 18.2241 181.105)" fill="#96BFAB"/>
<ellipse cx="39.8886" cy="193.648" rx="12.1196" ry="14.0311" fill="#96BFAB"/>
<path d="M39.7832 211.081C30.2562 209.221 27.8042 198.826 27.769 193.861H52.0082C50.4063 207.13 43.1908 210.869 39.7832 211.081Z" fill="#96BFAB"/>
<mask id="mask1_198_624" style="mask-type:alpha" maskUnits="userSpaceOnUse" x="27" y="179" width="26" height="33">
<ellipse cx="39.8886" cy="193.648" rx="12.1196" ry="14.0311" fill="#FFD884"/>
<path d="M39.7832 211.081C30.2562 209.221 27.8042 198.826 27.769 193.861H52.0082C50.4063 207.13 43.1908 210.869 39.7832 211.081Z" fill="#FFD884"/>
</mask>
<g mask="url(#mask1_198_624)">
<mask id="path-21-inside-1_198_624" fill="white">
<ellipse cx="39.9951" cy="201.833" rx="29.2358" ry="22.216"/>
</mask>
<path d="M39.231 201.833C39.231 199.424 39.9024 197.36 40.7205 195.89C41.4944 194.5 42.2732 193.841 42.5172 193.656C42.9045 193.362 42.1124 194.049 39.9951 194.049V254.049C54.0244 254.049 67.8502 249.763 78.8188 241.428C89.8095 233.076 99.231 219.359 99.231 201.833H39.231ZM39.9951 194.049C37.8779 194.049 37.0858 193.362 37.4731 193.656C37.717 193.841 38.4958 194.5 39.2697 195.89C40.0878 197.36 40.7593 199.424 40.7593 201.833H-19.2407C-19.2407 219.359 -9.81927 233.076 1.17146 241.428C12.14 249.763 25.9659 254.049 39.9951 254.049V194.049ZM40.7593 201.833C40.7593 204.241 40.0878 206.306 39.2697 207.776C38.4958 209.166 37.717 209.825 37.4731 210.01C37.0858 210.304 37.8779 209.617 39.9951 209.617V149.617C25.9659 149.617 12.14 153.903 1.17146 162.238C-9.81927 170.589 -19.2407 184.307 -19.2407 201.833H40.7593ZM39.9951 209.617C42.1124 209.617 42.9045 210.304 42.5172 210.01C42.2732 209.825 41.4944 209.166 40.7205 207.776C39.9024 206.306 39.231 204.241 39.231 201.833H99.231C99.231 184.307 89.8095 170.589 78.8188 162.238C67.8502 153.903 54.0244 149.617 39.9951 149.617V209.617Z" fill="#96BFAB" mask="url(#path-21-inside-1_198_624)"/>
<mask id="path-23-inside-2_198_624" fill="white">
<ellipse cx="39.9951" cy="212.888" rx="29.2358" ry="22.216"/>
</mask>
<path d="M39.231 212.888C39.231 210.479 39.9024 208.414 40.7205 206.945C41.4944 205.554 42.2732 204.896 42.5172 204.71C42.9045 204.416 42.1124 205.104 39.9951 205.104V265.104C54.0244 265.104 67.8502 260.818 78.8188 252.483C89.8095 244.131 99.231 230.414 99.231 212.888H39.231ZM39.9951 205.104C37.8779 205.104 37.0858 204.416 37.4731 204.71C37.717 204.896 38.4958 205.554 39.2697 206.945C40.0878 208.414 40.7593 210.479 40.7593 212.888H-19.2407C-19.2407 230.414 -9.81927 244.131 1.17146 252.483C12.14 260.818 25.9659 265.104 39.9951 265.104V205.104ZM40.7593 212.888C40.7593 215.296 40.0878 217.361 39.2697 218.831C38.4958 220.221 37.717 220.879 37.4731 221.065C37.0858 221.359 37.8779 220.672 39.9951 220.672V160.672C25.9659 160.672 12.14 164.957 1.17146 173.292C-9.81927 181.644 -19.2407 195.362 -19.2407 212.888H40.7593ZM39.9951 220.672C42.1124 220.672 42.9045 221.359 42.5172 221.065C42.2732 220.879 41.4944 220.221 40.7205 218.831C39.9024 217.361 39.231 215.296 39.231 212.888H99.231C99.231 195.362 89.8095 181.644 78.8188 173.292C67.8502 164.957 54.0244 160.672 39.9951 160.672V220.672Z" fill="#96BFAB" mask="url(#path-23-inside-2_198_624)"/>
<mask id="path-25-inside-3_198_624" fill="white">
<ellipse cx="39.9951" cy="223.73" rx="29.2358" ry="22.216"/>
</mask>
<path d="M39.231 223.73C39.231 221.321 39.9024 219.257 40.7205 217.787C41.4944 216.397 42.2732 215.738 42.5172 215.553C42.9045 215.258 42.1124 215.946 39.9951 215.946V275.946C54.0244 275.946 67.8502 271.66 78.8188 263.325C89.8095 254.973 99.231 241.256 99.231 223.73H39.231ZM39.9951 215.946C37.8779 215.946 37.0858 215.258 37.4731 215.553C37.717 215.738 38.4958 216.397 39.2697 217.787C40.0878 219.257 40.7593 221.321 40.7593 223.73H-19.2407C-19.2407 241.256 -9.81927 254.973 1.17146 263.325C12.14 271.66 25.9659 275.946 39.9951 275.946V215.946ZM40.7593 223.73C40.7593 226.138 40.0878 228.203 39.2697 229.673C38.4958 231.063 37.717 231.722 37.4731 231.907C37.0858 232.201 37.8779 231.514 39.9951 231.514V171.514C25.9659 171.514 12.14 175.8 1.17146 184.135C-9.81927 192.486 -19.2407 206.204 -19.2407 223.73H40.7593ZM39.9951 231.514C42.1124 231.514 42.9045 232.201 42.5172 231.907C42.2732 231.722 41.4944 231.063 40.7205 229.673C39.9024 228.203 39.231 226.138 39.231 223.73H99.231C99.231 206.204 89.8095 192.486 78.8188 184.135C67.8502 175.8 54.0244 171.514 39.9951 171.514V231.514Z" fill="#96BFAB" mask="url(#path-25-inside-3_198_624)"/>
</g>
<path d="M33.2975 177.066C28.0326 179.44 19.9925 185.995 29.9512 193.223" stroke="#96BFAB" stroke-width="4" stroke-linecap="round"/>
<path d="M46.2674 176.853C51.5323 179.227 59.5725 185.782 49.6138 193.01" stroke="#96BFAB" stroke-width="4" stroke-linecap="round"/>
<ellipse cx="39.9951" cy="175.471" rx="8.61129" ry="4.14556" fill="#96BFAB"/>
<ellipse cx="39.9951" cy="179.936" rx="8.61129" ry="4.14556" fill="#96BFAB"/>
<ellipse cx="39.8888" cy="166.649" rx="8.07973" ry="8.07853" fill="#96BFAB"/>
<ellipse cx="2.19511" cy="3.26677" rx="2.19511" ry="3.26677" transform="matrix(0.950878 -0.309566 0.333049 0.942909 41.3184 162.973)" fill="#96BFAB"/>
<ellipse cx="2.19511" cy="3.26677" rx="2.19511" ry="3.26677" transform="matrix(-0.950878 -0.309566 -0.333049 0.942909 38.5854 162.973)" fill="#96BFAB"/>
<ellipse cx="39.8886" cy="169.412" rx="1.48826" ry="1.06296" fill="#96BFAB"/>
<path d="M38.3748 160.271C38.551 158.65 37.8672 155.189 33.7222 154.318" stroke="#96BFAB" stroke-width="3" stroke-linecap="round"/>
<ellipse cx="33.2976" cy="154.637" rx="1.27565" ry="0.744075" fill="#96BFAB"/>
<path d="M41.4021 160.271C41.2259 158.65 41.9096 155.189 46.0547 154.318" stroke="#96BFAB" stroke-width="3" stroke-linecap="round"/>
<ellipse cx="1.27565" cy="0.744075" rx="1.27565" ry="0.744075" transform="matrix(-1 0 0 1 47.7559 153.893)" fill="#96BFAB"/>
<rect x="17.3286" y="240.588" width="45.511" height="49.7305" fill="#96BFAB"/>
<path d="M14.3143 235.163L29.0827 228.231V264.399H20.4929L4.36816 254.001L14.3143 235.163Z" fill="#96BFAB"/>
<path d="M65.2507 235.163L50.4822 228.231V264.399H59.072L75.1968 254.001L65.2507 235.163Z" fill="#96BFAB"/>
<path d="M29.0828 228.081C36.7986 239.293 46.6643 232.752 50.6327 228.081L54.8523 249.329H30.2884L24.4111 241.493L25.466 233.054L29.0828 228.081Z" fill="#96BFAB"/>
<rect x="28.1943" y="321.445" width="23.176" height="46.5727" rx="11.588" fill="#96BFAB"/>
<circle cx="39.7823" cy="323.101" r="11.588" fill="#96BFAB"/>
<rect x="35.6992" y="307.319" width="7.94605" height="7.50461" rx="3.7523" fill="#96BFAB"/>
<mask id="mask2_198_624" style="mask-type:alpha" maskUnits="userSpaceOnUse" x="28" y="307" width="24" height="62">
<rect x="28.1943" y="321.445" width="23.176" height="46.5727" rx="11.588" fill="#D9D9D9"/>
<circle cx="39.7823" cy="323.101" r="11.588" fill="#D9D9D9"/>
<rect x="35.6992" y="307.319" width="7.94605" height="7.50461" rx="3.7523" fill="#D9D9D9"/>
</mask>
<g mask="url(#mask2_198_624)">
<rect x="19.145" y="334.689" width="11.0362" height="14.347" rx="5.51809" fill="#96BFAB"/>
<rect x="49.3838" y="334.689" width="11.0362" height="14.347" rx="5.51809" fill="#96BFAB"/>
</g>
<rect x="17.3164" y="407.801" width="44.9319" height="38.9199" fill="#96BFAB"/>
<path d="M28.7688 385.018C36.7088 396.038 46.8613 389.61 50.945 385.018L55.2872 405.902H30.0095L23.9614 398.2L25.047 389.906L28.7688 385.018Z" fill="#96BFAB"/>
<path d="M22.3796 389.448L28.7081 385.018V413.338L25.0692 414.287L17.4751 407.8C21.1456 405.396 22.2742 394.563 22.3796 389.448Z" fill="#96BFAB"/>
<path d="M57.1853 389.448L50.8569 385.018V413.338L54.4957 414.287L62.0898 407.8C58.4193 405.396 57.2908 394.563 57.1853 389.448Z" fill="#96BFAB"/>
<path d="M25.5435 416.186V399.732H55.2871L56.2364 415.236L25.5435 416.186Z" fill="#96BFAB"/>
<rect x="28.1943" y="477.847" width="23.176" height="46.5727" rx="11.588" fill="#96BFAB"/>
<circle cx="39.7823" cy="479.502" r="11.588" fill="#96BFAB"/>
<rect x="35.6992" y="463.72" width="7.94605" height="7.50461" rx="3.7523" fill="#96BFAB"/>
<mask id="mask3_198_624" style="mask-type:alpha" maskUnits="userSpaceOnUse" x="28" y="463" width="24" height="62">
<rect x="28.1943" y="477.847" width="23.176" height="46.5727" rx="11.588" fill="#D9D9D9"/>
<circle cx="39.7823" cy="479.502" r="11.588" fill="#D9D9D9"/>
<rect x="35.6992" y="463.72" width="7.94605" height="7.50461" rx="3.7523" fill="#D9D9D9"/>
</mask>
<g mask="url(#mask3_198_624)">
<rect x="19.145" y="491.09" width="11.0362" height="14.347" rx="5.51809" fill="#96BFAB"/>
<rect x="49.3838" y="491.09" width="11.0362" height="14.347" rx="5.51809" fill="#96BFAB"/>
</g>
<rect x="18.8965" y="552.961" width="41.9939" height="45.8873" fill="#96BFAB"/>
<path d="M29.7423 541.419C36.8618 551.765 45.9651 545.73 49.6268 541.419L53.5203 561.026H30.8547L25.4316 553.795L26.405 546.008L29.7423 541.419Z" fill="#96BFAB"/>
<path d="M13.5807 549.538L29.8185 541.419L31.2946 556.919L20.0758 565.186L10.3331 600.614L0 596.185L13.5807 549.538Z" fill="#96BFAB"/>
<path d="M65.8561 549.518L49.4652 541.419L47.9751 556.88L59.2997 565.126L69.1343 600.466L79.5649 596.048L65.8561 549.518Z" fill="#96BFAB"/>
<ellipse cx="20.6074" cy="8.91091" rx="20.6074" ry="8.91091" transform="matrix(-0.921403 0.388607 0.553237 0.833024 68.2988 628.456)" fill="#96BFAB"/>
<ellipse cx="12.23" cy="6.43304" rx="12.23" ry="6.43304" transform="matrix(-0.960627 0.27784 0.325098 0.94568 61.3413 644.825)" fill="#96BFAB"/>
<ellipse cx="20.6074" cy="8.91091" rx="20.6074" ry="8.91091" transform="matrix(0.921403 0.388607 -0.553237 0.833024 11.2666 628.456)" fill="#96BFAB"/>
<ellipse cx="12.23" cy="6.43304" rx="12.23" ry="6.43304" transform="matrix(0.960627 0.27784 -0.325098 0.94568 18.2241 644.825)" fill="#96BFAB"/>
<ellipse cx="39.8886" cy="657.369" rx="12.1196" ry="14.0311" fill="#96BFAB"/>
<path d="M39.7832 674.801C30.2562 672.942 27.8042 662.546 27.769 657.581H52.0082C50.4063 670.85 43.1908 674.59 39.7832 674.801Z" fill="#96BFAB"/>
<mask id="mask4_198_624" style="mask-type:alpha" maskUnits="userSpaceOnUse" x="27" y="643" width="26" height="32">
<ellipse cx="39.8886" cy="657.369" rx="12.1196" ry="14.0311" fill="#FFD884"/>
<path d="M39.7832 674.801C30.2562 672.942 27.8042 662.546 27.769 657.581H52.0082C50.4063 670.85 43.1908 674.59 39.7832 674.801Z" fill="#FFD884"/>
</mask>
<g mask="url(#mask4_198_624)">
<mask id="path-76-inside-4_198_624" fill="white">
<ellipse cx="39.9951" cy="665.553" rx="29.2358" ry="22.216"/>
</mask>
<path d="M39.231 665.553C39.231 663.145 39.9024 661.08 40.7205 659.61C41.4944 658.22 42.2732 657.562 42.5172 657.376C42.9045 657.082 42.1124 657.769 39.9951 657.769V717.769C54.0244 717.769 67.8502 713.483 78.8188 705.149C89.8095 696.797 99.231 683.079 99.231 665.553H39.231ZM39.9951 657.769C37.8779 657.769 37.0858 657.082 37.4731 657.376C37.717 657.562 38.4958 658.22 39.2697 659.61C40.0878 661.08 40.7593 663.145 40.7593 665.553H-19.2407C-19.2407 683.079 -9.81927 696.797 1.17146 705.149C12.14 713.483 25.9659 717.769 39.9951 717.769V657.769ZM40.7593 665.553C40.7593 667.962 40.0878 670.027 39.2697 671.496C38.4958 672.887 37.717 673.545 37.4731 673.73C37.0858 674.025 37.8779 673.337 39.9951 673.337V613.337C25.9659 613.337 12.14 617.623 1.17146 625.958C-9.81927 634.31 -19.2407 648.027 -19.2407 665.553H40.7593ZM39.9951 673.337C42.1124 673.337 42.9045 674.025 42.5172 673.73C42.2732 673.545 41.4944 672.887 40.7205 671.496C39.9024 670.027 39.231 667.962 39.231 665.553H99.231C99.231 648.027 89.8095 634.31 78.8188 625.958C67.8502 617.623 54.0244 613.337 39.9951 613.337V673.337Z" fill="#96BFAB" mask="url(#path-76-inside-4_198_624)"/>
<mask id="path-78-inside-5_198_624" fill="white">
<ellipse cx="39.9951" cy="676.608" rx="29.2358" ry="22.216"/>
</mask>
<path d="M39.231 676.608C39.231 674.2 39.9024 672.135 40.7205 670.665C41.4944 669.275 42.2732 668.616 42.5172 668.431C42.9045 668.137 42.1124 668.824 39.9951 668.824V728.824C54.0244 728.824 67.8502 724.538 78.8188 716.203C89.8095 707.852 99.231 694.134 99.231 676.608H39.231ZM39.9951 668.824C37.8779 668.824 37.0858 668.137 37.4731 668.431C37.717 668.616 38.4958 669.275 39.2697 670.665C40.0878 672.135 40.7593 674.2 40.7593 676.608H-19.2407C-19.2407 694.134 -9.81927 707.852 1.17146 716.203C12.14 724.538 25.9659 728.824 39.9951 728.824V668.824ZM40.7593 676.608C40.7593 679.017 40.0878 681.081 39.2697 682.551C38.4958 683.941 37.717 684.6 37.4731 684.785C37.0858 685.079 37.8779 684.392 39.9951 684.392V624.392C25.9659 624.392 12.14 628.678 1.17146 637.013C-9.81927 645.365 -19.2407 659.082 -19.2407 676.608H40.7593ZM39.9951 684.392C42.1124 684.392 42.9045 685.079 42.5172 684.785C42.2732 684.6 41.4944 683.941 40.7205 682.551C39.9024 681.081 39.231 679.017 39.231 676.608H99.231C99.231 659.082 89.8095 645.365 78.8188 637.013C67.8502 628.678 54.0244 624.392 39.9951 624.392V684.392Z" fill="#96BFAB" mask="url(#path-78-inside-5_198_624)"/>
<mask id="path-80-inside-6_198_624" fill="white">
<ellipse cx="39.9951" cy="687.45" rx="29.2358" ry="22.216"/>
</mask>
<path d="M39.231 687.45C39.231 685.042 39.9024 682.977 40.7205 681.507C41.4944 680.117 42.2732 679.459 42.5172 679.273C42.9045 678.979 42.1124 679.666 39.9951 679.666V739.666C54.0244 739.666 67.8502 735.38 78.8188 727.046C89.8095 718.694 99.231 704.976 99.231 687.45H39.231ZM39.9951 679.666C37.8779 679.666 37.0858 678.979 37.4731 679.273C37.717 679.459 38.4958 680.117 39.2697 681.507C40.0878 682.977 40.7593 685.042 40.7593 687.45H-19.2407C-19.2407 704.976 -9.81927 718.694 1.17146 727.046C12.14 735.38 25.9659 739.666 39.9951 739.666V679.666ZM40.7593 687.45C40.7593 689.859 40.0878 691.924 39.2697 693.393C38.4958 694.784 37.717 695.442 37.4731 695.627C37.0858 695.922 37.8779 695.234 39.9951 695.234V635.234C25.9659 635.234 12.14 639.52 1.17146 647.855C-9.81927 656.207 -19.2407 669.924 -19.2407 687.45H40.7593ZM39.9951 695.234C42.1124 695.234 42.9045 695.922 42.5172 695.627C42.2732 695.442 41.4944 694.784 40.7205 693.393C39.9024 691.924 39.231 689.859 39.231 687.45H99.231C99.231 669.924 89.8095 656.207 78.8188 647.855C67.8502 639.52 54.0244 635.234 39.9951 635.234V695.234Z" fill="#96BFAB" mask="url(#path-80-inside-6_198_624)"/>
</g>
<path d="M33.2975 640.786C28.0326 643.16 19.9925 649.715 29.9512 656.943" stroke="#96BFAB" stroke-width="4" stroke-linecap="round"/>
<path d="M46.2674 640.574C51.5323 642.948 59.5725 649.503 49.6138 656.731" stroke="#96BFAB" stroke-width="4" stroke-linecap="round"/>
<ellipse cx="39.9951" cy="639.192" rx="8.61129" ry="4.14556" fill="#96BFAB"/>
<ellipse cx="39.9951" cy="643.656" rx="8.61129" ry="4.14556" fill="#96BFAB"/>
<ellipse cx="39.8888" cy="630.369" rx="8.07973" ry="8.07853" fill="#96BFAB"/>
<ellipse cx="2.19511" cy="3.26677" rx="2.19511" ry="3.26677" transform="matrix(0.950878 -0.309566 0.333049 0.942909 41.3184 626.693)" fill="#96BFAB"/>
<ellipse cx="2.19511" cy="3.26677" rx="2.19511" ry="3.26677" transform="matrix(-0.950878 -0.309566 -0.333049 0.942909 38.5854 626.693)" fill="#96BFAB"/>
<ellipse cx="39.8886" cy="633.133" rx="1.48826" ry="1.06296" fill="#96BFAB"/>
<path d="M38.3748 623.991C38.551 622.37 37.8672 618.91 33.7222 618.039" stroke="#96BFAB" stroke-width="3" stroke-linecap="round"/>
<ellipse cx="33.2976" cy="618.358" rx="1.27565" ry="0.744075" fill="#96BFAB"/>
<path d="M41.4021 623.991C41.2259 622.37 41.9096 618.91 46.0547 618.039" stroke="#96BFAB" stroke-width="3" stroke-linecap="round"/>
<ellipse cx="1.27565" cy="0.744075" rx="1.27565" ry="0.744075" transform="matrix(-1 0 0 1 47.7559 617.614)" fill="#96BFAB"/>
<rect x="17.3286" y="704.309" width="45.511" height="49.7305" fill="#96BFAB"/>
<path d="M14.3143 698.884L29.0827 691.952V728.119H20.4929L4.36816 717.721L14.3143 698.884Z" fill="#96BFAB"/>
<path d="M65.2507 698.884L50.4822 691.952V728.119H59.072L75.1968 717.721L65.2507 698.884Z" fill="#96BFAB"/>
<path d="M29.0828 691.801C36.7986 703.013 46.6643 696.473 50.6327 691.801L54.8523 713.05H30.2884L24.4111 705.213L25.466 696.774L29.0828 691.801Z" fill="#96BFAB"/>
<rect x="28.1943" y="785.166" width="23.176" height="46.5727" rx="11.588" fill="#96BFAB"/>
<circle cx="39.7823" cy="786.821" r="11.588" fill="#96BFAB"/>
<rect x="35.6992" y="771.04" width="7.94605" height="7.50461" rx="3.7523" fill="#96BFAB"/>
<mask id="mask5_198_624" style="mask-type:alpha" maskUnits="userSpaceOnUse" x="28" y="771" width="24" height="61">
<rect x="28.1943" y="785.166" width="23.176" height="46.5727" rx="11.588" fill="#D9D9D9"/>
<circle cx="39.7823" cy="786.821" r="11.588" fill="#D9D9D9"/>
<rect x="35.6992" y="771.04" width="7.94605" height="7.50461" rx="3.7523" fill="#D9D9D9"/>
</mask>
<g mask="url(#mask5_198_624)">
<rect x="19.145" y="798.409" width="11.0362" height="14.347" rx="5.51809" fill="#96BFAB"/>
<rect x="49.3838" y="798.409" width="11.0362" height="14.347" rx="5.51809" fill="#96BFAB"/>
</g>
<rect x="17.3164" y="871.521" width="44.9319" height="38.9199" fill="#96BFAB"/>
<path d="M28.7688 848.739C36.7088 859.758 46.8613 853.33 50.945 848.739L55.2872 869.622H30.0095L23.9614 861.921L25.047 853.626L28.7688 848.739Z" fill="#96BFAB"/>
<path d="M22.3796 853.168L28.7081 848.739V877.058L25.0692 878.008L17.4751 871.521C21.1456 869.116 22.2742 858.284 22.3796 853.168Z" fill="#96BFAB"/>
<path d="M57.1853 853.168L50.8569 848.739V877.058L54.4957 878.008L62.0898 871.521C58.4193 869.116 57.2908 858.284 57.1853 853.168Z" fill="#96BFAB"/>
<path d="M25.5435 879.906V863.452H55.2871L56.2364 878.957L25.5435 879.906Z" fill="#96BFAB"/>
</svg>
