<svg width="131" height="113" viewBox="0 0 131 113" fill="none" xmlns="http://www.w3.org/2000/svg">
<g filter="url(#filter0_d_289_120)">
<ellipse cx="32.4272" cy="14.0231" rx="32.4272" ry="14.0231" transform="matrix(-0.921441 0.388518 0.553341 0.832955 110.262 29.0623)" fill="#F4F1E7"/>
<ellipse cx="19.2446" cy="10.1239" rx="19.2446" ry="10.1239" transform="matrix(-0.960617 0.277877 0.325056 0.945695 99.3125 54.825)" fill="#F4F1E7"/>
<ellipse cx="32.4272" cy="14.0231" rx="32.4272" ry="14.0231" transform="matrix(0.921441 0.388518 -0.553341 0.832955 20.5186 29.0625)" fill="#F4F1E7"/>
<ellipse cx="19.2446" cy="10.1239" rx="19.2446" ry="10.1239" transform="matrix(0.960617 0.277877 -0.325056 0.945695 31.4678 54.8252)" fill="#F4F1E7"/>
<ellipse cx="65.5579" cy="74.5649" rx="19.0706" ry="22.0817" fill="#F9C03D"/>
<path d="M65.392 102C50.4009 99.0735 46.5426 82.7136 46.4873 74.8994H84.6285C82.1078 95.7816 70.7539 101.667 65.392 102Z" fill="#F9C03D"/>
<mask id="mask0_289_120" style="mask-type:alpha" maskUnits="userSpaceOnUse" x="46" y="52" width="39" height="50">
<ellipse cx="65.5579" cy="74.5649" rx="19.0706" ry="22.0817" fill="#FFD884"/>
<path d="M65.392 102C50.4009 99.0735 46.5426 82.7136 46.4873 74.8994H84.6285C82.1078 95.7816 70.7539 101.667 65.392 102Z" fill="#FFD884"/>
</mask>
<g mask="url(#mask0_289_120)">
<path d="M106.229 87.4456C106.229 95.0123 102.207 102.256 94.9268 107.789C87.6427 113.325 77.3367 116.908 65.7253 116.908C54.1139 116.908 43.8078 113.325 36.5238 107.789C29.2438 102.256 25.2217 95.0123 25.2217 87.4456C25.2217 79.879 29.2438 72.6349 36.5238 67.1021C43.8078 61.5663 54.1139 57.9829 65.7253 57.9829C77.3367 57.9829 87.6427 61.5663 94.9268 67.1021C102.207 72.6349 106.229 79.879 106.229 87.4456Z" stroke="#181818" stroke-width="11"/>
<path d="M106.229 104.843C106.229 112.41 102.207 119.654 94.9268 125.187C87.6427 130.723 77.3367 134.306 65.7253 134.306C54.1139 134.306 43.8078 130.723 36.5238 125.187C29.2438 119.654 25.2217 112.41 25.2217 104.843C25.2217 97.2767 29.2438 90.0326 36.5238 84.4999C43.8078 78.964 54.1139 75.3806 65.7253 75.3806C77.3367 75.3806 87.6427 78.964 94.9268 84.4999C102.207 90.0326 106.229 97.2767 106.229 104.843Z" stroke="#181818" stroke-width="11"/>
<path d="M106.229 121.907C106.229 129.473 102.207 136.717 94.9268 142.25C87.6427 147.786 77.3367 151.369 65.7253 151.369C54.1139 151.369 43.8078 147.786 36.5238 142.25C29.2438 136.717 25.2217 129.473 25.2217 121.907C25.2217 114.34 29.2438 107.096 36.5238 101.563C43.8078 96.0272 54.1139 92.4438 65.7253 92.4438C77.3367 92.4438 87.6427 96.0272 94.9268 101.563C102.207 107.096 106.229 114.34 106.229 121.907Z" stroke="#181818" stroke-width="11"/>
</g>
<path d="M55.1864 48.4683C46.9019 52.2043 34.2505 62.5203 49.9208 73.8957" stroke="#504F4F" stroke-width="4" stroke-linecap="round"/>
<path d="M75.5949 48.134C83.8794 51.8701 96.5308 62.186 80.8604 73.5615" stroke="#504F4F" stroke-width="4" stroke-linecap="round"/>
<ellipse cx="65.725" cy="45.9592" rx="13.5501" ry="6.52414" fill="#754A32"/>
<ellipse cx="65.725" cy="52.9848" rx="13.5501" ry="6.52414" fill="#754A32"/>
<circle cx="65.5584" cy="32.0746" r="12.7137" fill="#F9C03D"/>
<ellipse cx="3.45435" cy="5.14109" rx="3.45435" ry="5.14109" transform="matrix(0.950865 -0.309607 0.333006 0.942925 67.8076 26.2883)" fill="#181818"/>
<ellipse cx="3.45435" cy="5.14109" rx="3.45435" ry="5.14109" transform="matrix(-0.950865 -0.309607 -0.333006 0.942925 63.5068 26.2883)" fill="#181818"/>
<ellipse cx="65.5588" cy="36.4241" rx="2.342" ry="1.67286" fill="#181818"/>
<path d="M63.177 22.0369C63.4544 19.4855 62.3783 14.0399 55.8555 12.6689" stroke="#504F4F" stroke-width="3" stroke-linecap="round"/>
<ellipse cx="55.1861" cy="13.171" rx="2.00743" ry="1.171" fill="#504F4F"/>
<path d="M67.9382 22.0369C67.6609 19.4855 68.7369 14.0399 75.2598 12.6689" stroke="#504F4F" stroke-width="3" stroke-linecap="round"/>
<ellipse cx="2.00743" cy="1.171" rx="2.00743" ry="1.171" transform="matrix(-1 0 0 1 77.9365 12)" fill="#504F4F"/>
</g>
<defs>
<filter id="filter0_d_289_120" x="0.760742" y="0.168701" width="129.259" height="112.831" filterUnits="userSpaceOnUse" color-interpolation-filters="sRGB">
<feFlood flood-opacity="0" result="BackgroundImageFix"/>
<feColorMatrix in="SourceAlpha" type="matrix" values="0 0 0 0 0 0 0 0 0 0 0 0 0 0 0 0 0 0 127 0" result="hardAlpha"/>
<feOffset/>
<feGaussianBlur stdDeviation="5.5"/>
<feComposite in2="hardAlpha" operator="out"/>
<feColorMatrix type="matrix" values="0 0 0 0 0.395833 0 0 0 0 0.395833 0 0 0 0 0.395833 0 0 0 0.2 0"/>
<feBlend mode="normal" in2="BackgroundImageFix" result="effect1_dropShadow_289_120"/>
<feBlend mode="normal" in="SourceGraphic" in2="effect1_dropShadow_289_120" result="shape"/>
</filter>
</defs>
</svg>
